<svg width="122" height="67" viewBox="0 0 122 67" fill="none" xmlns="http://www.w3.org/2000/svg">
<path d="M12.0395 31.0872L17.9695 36.2983L12.7583 30.3684L23.8994 20.1258C19.443 16.6757 15.334 18.2091 13.8365 19.407C8.51753 23.0009 10.4223 28.6913 12.0395 31.0872Z" fill="#FF6F61"/>
<path fill-rule="evenodd" clip-rule="evenodd" d="M17.4304 54.0881H0L5.75023 9.52382H12.0395C12.339 6.34921 14.8428 0 22.4618 0C30.0809 0 32.1055 6.34921 32.1654 9.52382H38.0953L40.4313 23.8994L30.009 14.735L26.2354 18.5086L31.4466 24.4385L23.8994 17.7898C23.0608 17.1908 20.629 15.9928 17.6101 15.9928C13.8365 15.9928 8.08626 20.1258 8.08626 26.4151C8.14616 27.673 8.69723 30.584 10.4223 32.1654L5.75023 36.6577L17.4304 54.0881ZM30.009 9.52382H14.3756C14.3756 8.62535 15.4537 1.97664 22.4618 1.97664C28.0683 1.97664 29.8293 7.00809 30.009 9.52382Z" fill="#FF6F61"/>
<path d="M26.983 33.2795V39.0584H35.0045V42.8536H26.983V55.7054H22.929V32.7188C22.929 30.5912 23.6047 28.8805 24.956 27.5867C25.876 26.7242 26.9111 26.1635 28.0611 25.9048C29.2112 25.646 30.62 25.5166 32.2875 25.5166H36.859V29.3118H31.7269C28.5643 29.3118 26.983 30.6344 26.983 33.2795Z" fill="white"/>
<path d="M51.8327 43.5436V47.425C50.7402 46.5913 49.4033 46.1744 47.8219 46.1744C46.4706 46.1744 45.4212 46.4475 44.6737 46.9938C43.9262 47.5113 43.5524 48.2588 43.5524 49.2364C43.5524 51.1339 44.9612 52.0827 47.7788 52.0827H53.4715V43.8455C53.4715 40.3666 51.7752 38.6272 48.3826 38.6272H41.4823V35.0045H48.5982C51.3871 35.0045 53.529 35.6946 55.0241 37.0746C56.5192 38.4547 57.2667 40.4385 57.2667 43.0261V55.7054H47.6494C45.2056 55.7054 43.2649 55.1591 41.8273 54.0666C40.3898 52.974 39.671 51.3783 39.671 49.2795C39.671 47.1807 40.4329 45.585 41.9567 44.4924C43.4805 43.3999 45.3925 42.8536 47.6926 42.8536C48.9864 42.8536 50.3664 43.0836 51.8327 43.5436Z" fill="white"/>
<path d="M62.2232 35.0045H69.6842C72.8755 35.0045 75.1613 35.4789 76.5413 36.4277C77.7776 37.2615 78.5539 38.2678 78.8702 39.4466C79.2152 40.5966 79.3877 42.1204 79.3877 44.018V55.7054H75.5925V44.0611C75.5925 43.5436 75.5782 43.1124 75.5494 42.7673C75.5207 42.3936 75.42 41.9336 75.2475 41.3873C75.075 40.8123 74.8306 40.3522 74.5144 40.0072C74.1981 39.6335 73.7381 39.3172 73.1343 39.0584C72.5305 38.7709 71.7974 38.6272 70.9348 38.6272H66.0184V55.7054H62.2232V35.0045Z" fill="white"/>
<path d="M98.7273 51.1771L101.315 53.7215C99.3311 55.3316 97.0598 56.1366 94.5009 56.1366C91.3095 56.1366 88.7507 55.116 86.8244 53.0746C84.898 51.0046 83.9349 48.4313 83.9349 45.355C83.9349 42.3361 84.9412 39.7916 86.9537 37.7215C88.9951 35.6227 91.5108 34.5733 94.5009 34.5733C97.0598 34.5733 99.3311 35.3783 101.315 36.9884L98.7705 39.576C97.5629 38.6559 96.1397 38.1959 94.5009 38.1959C92.5171 38.1959 90.9358 38.8572 89.757 40.1797C88.6069 41.4735 88.0319 43.1986 88.0319 45.355C88.0319 47.5113 88.6069 49.2507 89.757 50.5733C90.9358 51.8671 92.5171 52.514 94.5009 52.514C96.1685 52.514 97.5773 52.0683 98.7273 51.1771Z" fill="white"/>
<path d="M104.319 35.0045H108.114V45.8293C108.114 48.1582 108.474 49.7826 109.192 50.7027C109.911 51.6227 111.234 52.0827 113.16 52.0827H117.688V35.0045H121.483V54.6703C121.483 58.2642 120.535 60.9668 118.637 62.7782C116.768 64.6182 113.821 65.5383 109.796 65.5383H106.691V61.9156H109.408C114.669 61.9156 117.43 59.8455 117.688 55.7054H114.066C110.299 55.7054 107.726 55.0441 106.346 53.7215C104.995 52.399 104.319 49.7108 104.319 45.6568V35.0045Z" fill="white"/>
<path d="M2.15407 60.1869C2.3471 60.1869 2.51527 60.1956 2.65858 60.2132C2.80482 60.2307 2.94081 60.2556 3.06658 60.2878C3.19527 60.317 3.32249 60.3521 3.44825 60.3931C3.57402 60.434 3.7144 60.4793 3.86941 60.5291L3.85186 60.9897C3.74073 60.9517 3.62812 60.9151 3.51406 60.88C3.4 60.8449 3.28008 60.8142 3.15432 60.7879C3.03148 60.7616 2.89987 60.7411 2.75948 60.7265C2.6191 60.7089 2.46847 60.7002 2.30761 60.7002C2.23449 60.7002 2.14968 60.7119 2.05316 60.7353C1.95665 60.7587 1.86452 60.7981 1.77678 60.8537C1.68903 60.9093 1.61445 60.9824 1.55304 61.0731C1.49162 61.1637 1.46091 61.2763 1.46091 61.4109C1.46091 61.5366 1.51063 61.6843 1.61007 61.854C1.70951 62.0207 1.87622 62.2298 2.11019 62.4813L2.88232 63.3149C3.05195 63.4903 3.21428 63.6644 3.36929 63.8369C3.52722 64.0066 3.66468 64.1747 3.78167 64.3414C3.89866 64.5052 3.99225 64.669 4.06244 64.8328C4.13264 64.9937 4.16773 65.153 4.16773 65.311C4.16773 65.6181 4.1107 65.8798 3.99664 66.0963C3.8855 66.3098 3.73926 66.4838 3.55793 66.6183C3.37952 66.7499 3.17625 66.8465 2.94813 66.9079C2.72 66.9693 2.49187 67 2.26374 67C2.06486 67 1.87914 66.9883 1.70658 66.9649C1.53402 66.9444 1.36878 66.9123 1.21084 66.8684C1.05583 66.8275 0.906672 66.7763 0.763361 66.7148C0.62005 66.6505 0.478201 66.5774 0.337814 66.4955L0.394846 66.0217C0.50891 66.0743 0.625899 66.1284 0.745813 66.184C0.865726 66.2367 0.987102 66.2849 1.10994 66.3288C1.2357 66.3697 1.36293 66.4034 1.49162 66.4297C1.6203 66.456 1.74899 66.4692 1.87768 66.4692C2.30761 66.4692 2.63226 66.3814 2.85161 66.2059C3.07096 66.0275 3.18064 65.7702 3.18064 65.4338C3.18064 65.3315 3.15724 65.2276 3.11045 65.1223C3.06658 65.017 3.00516 64.9088 2.92619 64.7977C2.84722 64.6836 2.75363 64.5666 2.64542 64.4467C2.54013 64.3268 2.42753 64.2011 2.30761 64.0694L1.52671 63.2183C1.32783 62.9756 1.16112 62.7679 1.02659 62.5954C0.892049 62.4228 0.783834 62.2693 0.701942 62.1347C0.622974 62.0002 0.565942 61.8774 0.530846 61.7662C0.498674 61.6522 0.482588 61.5337 0.482588 61.4109C0.482588 61.174 0.530846 60.978 0.627362 60.823C0.723877 60.6651 0.851103 60.5393 1.00904 60.4457C1.16697 60.3521 1.34538 60.2863 1.54426 60.2483C1.74314 60.2073 1.94641 60.1869 2.15407 60.1869Z" fill="white"/>
<path d="M18.2687 66.8465H17.3079V63.1613H14.3642V66.8465H13.4034V60.3229H14.3642V62.7314H17.3079V60.3229H18.2687V66.8465Z" fill="white"/>
<path d="M31.0447 66.9737C30.723 66.9737 30.413 66.9327 30.1147 66.8508C29.8193 66.769 29.5414 66.6549 29.2811 66.5087C29.0238 66.3595 28.7883 66.1811 28.5748 65.9734C28.3642 65.7658 28.1829 65.5362 28.0308 65.2847C27.8787 65.0302 27.7603 64.7582 27.6755 64.4687C27.5936 64.1762 27.5526 63.872 27.5526 63.5562C27.5526 63.2461 27.5936 62.9463 27.6755 62.6568C27.7603 62.3673 27.8787 62.0967 28.0308 61.8452C28.1829 61.5937 28.3642 61.3641 28.5748 61.1564C28.7883 60.9488 29.0238 60.7718 29.2811 60.6256C29.5414 60.4793 29.8193 60.3653 30.1147 60.2834C30.413 60.2015 30.723 60.1606 31.0447 60.1606C31.3635 60.1606 31.6706 60.2015 31.966 60.2834C32.2614 60.3624 32.5378 60.4764 32.7952 60.6256C33.0526 60.7718 33.2865 60.9488 33.4971 61.1564C33.7106 61.3641 33.8919 61.5937 34.0411 61.8452C34.1932 62.0967 34.3102 62.3673 34.3921 62.6568C34.4769 62.9463 34.5193 63.2461 34.5193 63.5562C34.5193 63.872 34.4769 64.1762 34.3921 64.4687C34.3102 64.7582 34.1932 65.0302 34.0411 65.2847C33.8919 65.5362 33.7106 65.7658 33.4971 65.9734C33.2865 66.1811 33.0526 66.3595 32.7952 66.5087C32.5378 66.6549 32.2614 66.769 31.966 66.8508C31.6706 66.9327 31.3635 66.9737 31.0447 66.9737ZM31.0447 66.5481C31.4425 66.5481 31.7935 66.4706 32.0976 66.3156C32.4047 66.1606 32.6621 65.9486 32.8698 65.6795C33.0774 65.4104 33.2339 65.0946 33.3392 64.7319C33.4474 64.3663 33.5015 63.9744 33.5015 63.5562C33.5015 63.1408 33.4489 62.7519 33.3436 62.3892C33.2383 62.0265 33.0818 61.7121 32.8741 61.446C32.6694 61.1798 32.4135 60.9707 32.1064 60.8186C31.7993 60.6636 31.4454 60.5861 31.0447 60.5861C30.6382 60.5861 30.2814 60.6636 29.9743 60.8186C29.6701 60.9707 29.4142 61.1798 29.2065 61.446C29.0018 61.7121 28.8468 62.0265 28.7415 62.3892C28.6392 62.7519 28.588 63.1408 28.588 63.5562C28.588 63.9744 28.6406 64.3663 28.7459 64.7319C28.8512 65.0946 29.0062 65.4104 29.2109 65.6795C29.4186 65.9486 29.676 66.1606 29.9831 66.3156C30.2902 66.4706 30.644 66.5481 31.0447 66.5481Z" fill="white"/>
<path d="M44.7245 65.1311V66.8465H43.7638V60.3229H45.3957C45.8549 60.3229 46.2483 60.3624 46.5759 60.4413C46.9034 60.5174 47.1784 60.6197 47.4006 60.7484C47.6229 60.8771 47.8013 61.0263 47.9359 61.1959C48.0704 61.3626 48.1728 61.5366 48.243 61.718C48.3132 61.8964 48.3585 62.0762 48.379 62.2576C48.4024 62.436 48.4141 62.6027 48.4141 62.7577C48.4141 62.9098 48.4009 63.075 48.3746 63.2534C48.3512 63.4289 48.3015 63.6044 48.2254 63.7799C48.1523 63.9554 48.047 64.125 47.9095 64.2888C47.775 64.4497 47.5951 64.593 47.3699 64.7187C47.1477 64.8445 46.8742 64.9454 46.5495 65.0214C46.2278 65.0946 45.8432 65.1311 45.3957 65.1311H44.7245ZM44.7245 60.7528V64.7012H45.2641C45.5888 64.7012 45.8827 64.6646 46.1459 64.5915C46.4092 64.5184 46.6329 64.4014 46.8172 64.2405C47.0043 64.0797 47.1477 63.8749 47.2471 63.6263C47.3465 63.3748 47.3963 63.0706 47.3963 62.7138C47.3963 62.4418 47.3699 62.2049 47.3173 62.0031C47.2676 61.7984 47.1959 61.6244 47.1023 61.4811C47.0087 61.3348 46.8961 61.2149 46.7645 61.1213C46.6358 61.0277 46.4925 60.9532 46.3346 60.8976C46.1796 60.842 46.0129 60.804 45.8345 60.7835C45.656 60.763 45.4718 60.7528 45.2817 60.7528H44.7245Z" fill="white"/>
<path d="M58.5491 65.1311V66.8465H57.5883V60.3229H59.2203C59.6795 60.3229 60.0729 60.3624 60.4004 60.4413C60.728 60.5174 61.0029 60.6197 61.2252 60.7484C61.4475 60.8771 61.6259 61.0263 61.7604 61.1959C61.895 61.3626 61.9973 61.5366 62.0675 61.718C62.1377 61.8964 62.1831 62.0762 62.2035 62.2576C62.2269 62.436 62.2386 62.6027 62.2386 62.7577C62.2386 62.9098 62.2255 63.075 62.1991 63.2534C62.1757 63.4289 62.126 63.6044 62.05 63.7799C61.9769 63.9554 61.8716 64.125 61.7341 64.2888C61.5996 64.4497 61.4197 64.593 61.1945 64.7187C60.9722 64.8445 60.6988 64.9454 60.3741 65.0214C60.0524 65.0946 59.6678 65.1311 59.2203 65.1311H58.5491ZM58.5491 60.7528V64.7012H59.0887C59.4133 64.7012 59.7073 64.6646 59.9705 64.5915C60.2337 64.5184 60.4575 64.4014 60.6417 64.2405C60.8289 64.0797 60.9722 63.8749 61.0717 63.6263C61.1711 63.3748 61.2208 63.0706 61.2208 62.7138C61.2208 62.4418 61.1945 62.2049 61.1419 62.0031C61.0921 61.7984 61.0205 61.6244 60.9269 61.4811C60.8333 61.3348 60.7207 61.2149 60.5891 61.1213C60.4604 61.0277 60.3171 60.9532 60.1591 60.8976C60.0041 60.842 59.8374 60.804 59.659 60.7835C59.4806 60.763 59.2964 60.7528 59.1062 60.7528H58.5491Z" fill="white"/>
<path d="M72.378 66.8465H71.4129V60.3229H72.378V66.8465Z" fill="white"/>
<path d="M86.9747 66.8465H86.2377L82.6227 61.7794V66.8465H82.1753V61.152L81.5918 60.3229H82.7675L86.5229 65.5961V60.3229H86.9747V66.8465Z" fill="white"/>
<path d="M97.3247 63.5035C97.3247 63.9451 97.3964 64.3458 97.5397 64.7056C97.6859 65.0624 97.8936 65.368 98.1627 65.6225C98.4317 65.8769 98.7593 66.0729 99.1454 66.2103C99.5344 66.3478 99.9701 66.4165 100.453 66.4165H101.413V62.6217H102.374V66.8465H100.058C99.7098 66.8465 99.375 66.8158 99.0532 66.7543C98.7315 66.6929 98.4303 66.6008 98.1495 66.4779C97.8687 66.3551 97.6143 66.2016 97.3861 66.0173C97.158 65.833 96.9621 65.6166 96.7983 65.368C96.6345 65.1194 96.5073 64.8401 96.4166 64.5301C96.3289 64.2201 96.285 63.8779 96.285 63.5035C96.285 63.1906 96.3259 62.8908 96.4078 62.6042C96.4926 62.3175 96.6096 62.0514 96.7588 61.8057C96.9109 61.56 97.0922 61.3378 97.3028 61.1389C97.5163 60.94 97.7517 60.7704 98.0091 60.63C98.2694 60.4867 98.5487 60.377 98.847 60.3009C99.1454 60.2249 99.4568 60.1869 99.7815 60.1869C100.287 60.1869 100.758 60.2702 101.194 60.4369C101.63 60.6036 102.016 60.8318 102.352 61.1213L102.107 61.446C101.972 61.3319 101.823 61.2252 101.659 61.1257C101.498 61.0263 101.326 60.94 101.141 60.8669C100.96 60.7938 100.772 60.7367 100.576 60.6958C100.38 60.6548 100.182 60.6344 99.9833 60.6344C99.5709 60.6373 99.2009 60.7119 98.8734 60.8581C98.5458 61.0014 98.2665 61.2018 98.0354 61.4591C97.8073 61.7136 97.6318 62.0148 97.509 62.3629C97.3861 62.7109 97.3247 63.0911 97.3247 63.5035Z" fill="white"/>
</svg>
